<mxfile host="app.diagrams.net" agent="Mozilla/5.0 (Macintosh; Intel Mac OS X 10_15_7) AppleWebKit/605.1.15 (KHTML, like Gecko) Version/18.1.1 Safari/605.1.15" version="24.8.9">
  <diagram name="Page-1" id="cHhaSUjg56VN5WlgCcTV">
    <mxGraphModel dx="1375" dy="2207" grid="1" gridSize="10" guides="1" tooltips="1" connect="1" arrows="1" fold="1" page="1" pageScale="1" pageWidth="827" pageHeight="1169" math="0" shadow="0">
      <root>
        <mxCell id="0" />
        <mxCell id="1" parent="0" />
        <mxCell id="27C8LPdTp-JJJdX5_l5X-1" value="HCMUT SSPS" style="swimlane;whiteSpace=wrap;html=1;" vertex="1" parent="1">
          <mxGeometry x="180" y="60" width="460" height="650" as="geometry" />
        </mxCell>
        <mxCell id="27C8LPdTp-JJJdX5_l5X-5" value="Đăng nhập" style="ellipse;whiteSpace=wrap;html=1;" vertex="1" parent="27C8LPdTp-JJJdX5_l5X-1">
          <mxGeometry x="60" y="60" width="90" height="40" as="geometry" />
        </mxCell>
        <mxCell id="27C8LPdTp-JJJdX5_l5X-6" value="Xác thực người dùng" style="ellipse;whiteSpace=wrap;html=1;" vertex="1" parent="27C8LPdTp-JJJdX5_l5X-1">
          <mxGeometry x="330" y="55" width="80" height="50" as="geometry" />
        </mxCell>
        <mxCell id="27C8LPdTp-JJJdX5_l5X-9" value="&amp;lt;&amp;lt;include&amp;gt;&amp;gt;" style="html=1;verticalAlign=bottom;labelBackgroundColor=none;endArrow=open;endFill=0;dashed=1;rounded=0;" edge="1" parent="27C8LPdTp-JJJdX5_l5X-1" source="27C8LPdTp-JJJdX5_l5X-5" target="27C8LPdTp-JJJdX5_l5X-6">
          <mxGeometry width="160" relative="1" as="geometry">
            <mxPoint x="-160" y="260" as="sourcePoint" />
            <mxPoint y="260" as="targetPoint" />
          </mxGeometry>
        </mxCell>
        <mxCell id="27C8LPdTp-JJJdX5_l5X-11" value="In tài liệu" style="ellipse;whiteSpace=wrap;html=1;" vertex="1" parent="27C8LPdTp-JJJdX5_l5X-1">
          <mxGeometry x="70" y="260" width="100" height="50" as="geometry" />
        </mxCell>
        <mxCell id="27C8LPdTp-JJJdX5_l5X-12" value="Phản hồi hệ thống" style="ellipse;whiteSpace=wrap;html=1;" vertex="1" parent="27C8LPdTp-JJJdX5_l5X-1">
          <mxGeometry x="70" y="474.5" width="95" height="50" as="geometry" />
        </mxCell>
        <mxCell id="27C8LPdTp-JJJdX5_l5X-13" value="Mua trang in" style="ellipse;whiteSpace=wrap;html=1;" vertex="1" parent="27C8LPdTp-JJJdX5_l5X-1">
          <mxGeometry x="70" y="140" width="100" height="50" as="geometry" />
        </mxCell>
        <mxCell id="27C8LPdTp-JJJdX5_l5X-15" value="Cài đặt hệ thống" style="ellipse;whiteSpace=wrap;html=1;" vertex="1" parent="27C8LPdTp-JJJdX5_l5X-1">
          <mxGeometry x="330" y="499" width="90" height="50" as="geometry" />
        </mxCell>
        <mxCell id="27C8LPdTp-JJJdX5_l5X-16" value="Quản lý người dùng" style="ellipse;whiteSpace=wrap;html=1;" vertex="1" parent="27C8LPdTp-JJJdX5_l5X-1">
          <mxGeometry x="325" y="310" width="90" height="50" as="geometry" />
        </mxCell>
        <mxCell id="27C8LPdTp-JJJdX5_l5X-17" value="Xử lý giao dịch" style="ellipse;whiteSpace=wrap;html=1;" vertex="1" parent="27C8LPdTp-JJJdX5_l5X-1">
          <mxGeometry x="320" y="195" width="100" height="50" as="geometry" />
        </mxCell>
        <mxCell id="27C8LPdTp-JJJdX5_l5X-30" value="Xem lịch sử hệ thống" style="ellipse;whiteSpace=wrap;html=1;" vertex="1" parent="27C8LPdTp-JJJdX5_l5X-1">
          <mxGeometry x="325" y="400" width="95" height="50" as="geometry" />
        </mxCell>
        <mxCell id="27C8LPdTp-JJJdX5_l5X-31" value="Xem lịch sử in" style="ellipse;whiteSpace=wrap;html=1;" vertex="1" parent="27C8LPdTp-JJJdX5_l5X-1">
          <mxGeometry x="75" y="400" width="90" height="50" as="geometry" />
        </mxCell>
        <mxCell id="27C8LPdTp-JJJdX5_l5X-32" value="Xem lịch sử" style="ellipse;whiteSpace=wrap;html=1;" vertex="1" parent="27C8LPdTp-JJJdX5_l5X-1">
          <mxGeometry x="190" y="400" width="90" height="50" as="geometry" />
        </mxCell>
        <mxCell id="27C8LPdTp-JJJdX5_l5X-33" value="" style="edgeStyle=none;html=1;endSize=12;endArrow=block;endFill=0;rounded=0;" edge="1" parent="27C8LPdTp-JJJdX5_l5X-1" source="27C8LPdTp-JJJdX5_l5X-31" target="27C8LPdTp-JJJdX5_l5X-32">
          <mxGeometry width="160" relative="1" as="geometry">
            <mxPoint x="150" y="410" as="sourcePoint" />
            <mxPoint x="310" y="410" as="targetPoint" />
          </mxGeometry>
        </mxCell>
        <mxCell id="27C8LPdTp-JJJdX5_l5X-34" value="" style="edgeStyle=none;html=1;endSize=12;endArrow=block;endFill=0;rounded=0;" edge="1" parent="27C8LPdTp-JJJdX5_l5X-1" source="27C8LPdTp-JJJdX5_l5X-30" target="27C8LPdTp-JJJdX5_l5X-32">
          <mxGeometry width="160" relative="1" as="geometry">
            <mxPoint x="140" y="470" as="sourcePoint" />
            <mxPoint x="185" y="470" as="targetPoint" />
          </mxGeometry>
        </mxCell>
        <mxCell id="27C8LPdTp-JJJdX5_l5X-50" value="&amp;lt;&amp;lt;extend&amp;gt;&amp;gt;" style="html=1;verticalAlign=bottom;labelBackgroundColor=none;endArrow=open;endFill=0;dashed=1;rounded=0;" edge="1" parent="27C8LPdTp-JJJdX5_l5X-1" source="27C8LPdTp-JJJdX5_l5X-31" target="27C8LPdTp-JJJdX5_l5X-11">
          <mxGeometry width="160" relative="1" as="geometry">
            <mxPoint x="110" y="280" as="sourcePoint" />
            <mxPoint x="270" y="280" as="targetPoint" />
          </mxGeometry>
        </mxCell>
        <mxCell id="27C8LPdTp-JJJdX5_l5X-51" value="&amp;lt;&amp;lt;extend&amp;gt;&amp;gt;" style="html=1;verticalAlign=bottom;labelBackgroundColor=none;endArrow=open;endFill=0;dashed=1;rounded=0;" edge="1" parent="27C8LPdTp-JJJdX5_l5X-1" source="27C8LPdTp-JJJdX5_l5X-13" target="27C8LPdTp-JJJdX5_l5X-11">
          <mxGeometry width="160" relative="1" as="geometry">
            <mxPoint x="109" y="410" as="sourcePoint" />
            <mxPoint x="126" y="320" as="targetPoint" />
          </mxGeometry>
        </mxCell>
        <mxCell id="27C8LPdTp-JJJdX5_l5X-52" value="&amp;lt;&amp;lt;include&amp;gt;&amp;gt;" style="html=1;verticalAlign=bottom;labelBackgroundColor=none;endArrow=open;endFill=0;dashed=1;rounded=0;" edge="1" parent="27C8LPdTp-JJJdX5_l5X-1" source="27C8LPdTp-JJJdX5_l5X-13" target="27C8LPdTp-JJJdX5_l5X-17">
          <mxGeometry x="0.1478" y="16" width="160" relative="1" as="geometry">
            <mxPoint x="110" y="270" as="sourcePoint" />
            <mxPoint x="270" y="270" as="targetPoint" />
            <mxPoint y="1" as="offset" />
          </mxGeometry>
        </mxCell>
        <mxCell id="27C8LPdTp-JJJdX5_l5X-55" value="Xử lý đơn in" style="ellipse;whiteSpace=wrap;html=1;" vertex="1" parent="27C8LPdTp-JJJdX5_l5X-1">
          <mxGeometry x="65" y="555" width="100" height="50" as="geometry" />
        </mxCell>
        <mxCell id="27C8LPdTp-JJJdX5_l5X-2" value="Người dùng" style="shape=umlActor;verticalLabelPosition=bottom;verticalAlign=top;html=1;outlineConnect=0;" vertex="1" parent="1">
          <mxGeometry x="80" y="110" width="30" height="60" as="geometry" />
        </mxCell>
        <mxCell id="27C8LPdTp-JJJdX5_l5X-4" value="Google Oauth" style="shape=umlActor;verticalLabelPosition=bottom;verticalAlign=top;html=1;outlineConnect=0;" vertex="1" parent="1">
          <mxGeometry x="680" y="110" width="30" height="60" as="geometry" />
        </mxCell>
        <mxCell id="27C8LPdTp-JJJdX5_l5X-7" value="" style="endArrow=none;html=1;rounded=0;" edge="1" parent="1" source="27C8LPdTp-JJJdX5_l5X-2" target="27C8LPdTp-JJJdX5_l5X-5">
          <mxGeometry width="50" height="50" relative="1" as="geometry">
            <mxPoint x="350" y="370" as="sourcePoint" />
            <mxPoint x="400" y="320" as="targetPoint" />
          </mxGeometry>
        </mxCell>
        <mxCell id="27C8LPdTp-JJJdX5_l5X-8" value="" style="endArrow=none;html=1;rounded=0;" edge="1" parent="1" source="27C8LPdTp-JJJdX5_l5X-6" target="27C8LPdTp-JJJdX5_l5X-4">
          <mxGeometry width="50" height="50" relative="1" as="geometry">
            <mxPoint x="160" y="151" as="sourcePoint" />
            <mxPoint x="270" y="157" as="targetPoint" />
          </mxGeometry>
        </mxCell>
        <mxCell id="27C8LPdTp-JJJdX5_l5X-10" value="Sinh viên" style="shape=umlActor;verticalLabelPosition=bottom;verticalAlign=top;html=1;outlineConnect=0;" vertex="1" parent="1">
          <mxGeometry x="80" y="320" width="30" height="60" as="geometry" />
        </mxCell>
        <mxCell id="27C8LPdTp-JJJdX5_l5X-28" value="VNPAY" style="shape=umlActor;verticalLabelPosition=bottom;verticalAlign=top;html=1;outlineConnect=0;" vertex="1" parent="1">
          <mxGeometry x="680" y="250" width="30" height="60" as="geometry" />
        </mxCell>
        <mxCell id="27C8LPdTp-JJJdX5_l5X-29" value="SPSO" style="shape=umlActor;verticalLabelPosition=bottom;verticalAlign=top;html=1;outlineConnect=0;" vertex="1" parent="1">
          <mxGeometry x="690" y="455" width="30" height="60" as="geometry" />
        </mxCell>
        <mxCell id="27C8LPdTp-JJJdX5_l5X-41" value="" style="edgeStyle=none;html=1;endSize=12;endArrow=block;endFill=0;rounded=0;" edge="1" parent="1" source="27C8LPdTp-JJJdX5_l5X-10" target="27C8LPdTp-JJJdX5_l5X-2">
          <mxGeometry width="160" relative="1" as="geometry">
            <mxPoint x="208.55176341887773" y="259.79446801006" as="sourcePoint" />
            <mxPoint x="159.55176341887773" y="283.79446801006" as="targetPoint" />
            <Array as="points">
              <mxPoint x="40" y="350" />
              <mxPoint x="40" y="140" />
            </Array>
          </mxGeometry>
        </mxCell>
        <mxCell id="27C8LPdTp-JJJdX5_l5X-42" value="" style="edgeStyle=none;html=1;endSize=12;endArrow=block;endFill=0;rounded=0;entryX=0.5;entryY=0;entryDx=0;entryDy=0;entryPerimeter=0;" edge="1" parent="1" source="27C8LPdTp-JJJdX5_l5X-29" target="27C8LPdTp-JJJdX5_l5X-2">
          <mxGeometry width="160" relative="1" as="geometry">
            <mxPoint x="398.5517634188777" y="349.79446801006" as="sourcePoint" />
            <mxPoint x="349.5517634188777" y="373.79446801006" as="targetPoint" />
            <Array as="points">
              <mxPoint x="800" y="485" />
              <mxPoint x="800" />
              <mxPoint x="95" />
            </Array>
          </mxGeometry>
        </mxCell>
        <mxCell id="27C8LPdTp-JJJdX5_l5X-44" value="" style="endArrow=none;html=1;rounded=0;" edge="1" parent="1" source="27C8LPdTp-JJJdX5_l5X-10" target="27C8LPdTp-JJJdX5_l5X-12">
          <mxGeometry relative="1" as="geometry">
            <mxPoint x="300" y="390" as="sourcePoint" />
            <mxPoint x="270" y="360" as="targetPoint" />
          </mxGeometry>
        </mxCell>
        <mxCell id="27C8LPdTp-JJJdX5_l5X-47" value="" style="endArrow=none;html=1;rounded=0;" edge="1" parent="1" source="27C8LPdTp-JJJdX5_l5X-10" target="27C8LPdTp-JJJdX5_l5X-11">
          <mxGeometry relative="1" as="geometry">
            <mxPoint x="120" y="379" as="sourcePoint" />
            <mxPoint x="262" y="562" as="targetPoint" />
          </mxGeometry>
        </mxCell>
        <mxCell id="27C8LPdTp-JJJdX5_l5X-48" value="" style="endArrow=none;html=1;rounded=0;" edge="1" parent="1" source="27C8LPdTp-JJJdX5_l5X-10" target="27C8LPdTp-JJJdX5_l5X-5">
          <mxGeometry relative="1" as="geometry">
            <mxPoint x="120" y="351" as="sourcePoint" />
            <mxPoint x="252" y="274" as="targetPoint" />
          </mxGeometry>
        </mxCell>
        <mxCell id="27C8LPdTp-JJJdX5_l5X-49" value="" style="endArrow=none;html=1;rounded=0;" edge="1" parent="1" source="27C8LPdTp-JJJdX5_l5X-30" target="27C8LPdTp-JJJdX5_l5X-29">
          <mxGeometry relative="1" as="geometry">
            <mxPoint x="290" y="468.459138040781" as="sourcePoint" />
            <mxPoint x="431" y="390.459138040781" as="targetPoint" />
          </mxGeometry>
        </mxCell>
        <mxCell id="27C8LPdTp-JJJdX5_l5X-53" value="" style="endArrow=none;html=1;rounded=0;" edge="1" parent="1" source="27C8LPdTp-JJJdX5_l5X-17" target="27C8LPdTp-JJJdX5_l5X-28">
          <mxGeometry relative="1" as="geometry">
            <mxPoint x="300" y="368.459138040781" as="sourcePoint" />
            <mxPoint x="441" y="290.459138040781" as="targetPoint" />
          </mxGeometry>
        </mxCell>
        <mxCell id="27C8LPdTp-JJJdX5_l5X-54" value="Nhân viên" style="shape=umlActor;verticalLabelPosition=bottom;verticalAlign=top;html=1;outlineConnect=0;" vertex="1" parent="1">
          <mxGeometry x="70" y="610" width="30" height="60" as="geometry" />
        </mxCell>
        <mxCell id="27C8LPdTp-JJJdX5_l5X-56" value="" style="edgeStyle=none;html=1;endSize=12;endArrow=block;endFill=0;rounded=0;" edge="1" parent="1" source="27C8LPdTp-JJJdX5_l5X-54" target="27C8LPdTp-JJJdX5_l5X-2">
          <mxGeometry width="160" relative="1" as="geometry">
            <mxPoint x="328.5517634188777" y="419.79446801006" as="sourcePoint" />
            <mxPoint x="279.5517634188777" y="443.79446801006" as="targetPoint" />
            <Array as="points">
              <mxPoint x="40" y="640" />
              <mxPoint x="40" y="140" />
            </Array>
          </mxGeometry>
        </mxCell>
        <mxCell id="27C8LPdTp-JJJdX5_l5X-57" value="" style="endArrow=none;html=1;rounded=0;" edge="1" parent="1" source="27C8LPdTp-JJJdX5_l5X-54" target="27C8LPdTp-JJJdX5_l5X-55">
          <mxGeometry relative="1" as="geometry">
            <mxPoint x="340" y="488.459138040781" as="sourcePoint" />
            <mxPoint x="481" y="410.459138040781" as="targetPoint" />
          </mxGeometry>
        </mxCell>
        <mxCell id="27C8LPdTp-JJJdX5_l5X-58" value="" style="endArrow=none;html=1;rounded=0;" edge="1" parent="1" source="27C8LPdTp-JJJdX5_l5X-15" target="27C8LPdTp-JJJdX5_l5X-29">
          <mxGeometry relative="1" as="geometry">
            <mxPoint x="340" y="478.459138040781" as="sourcePoint" />
            <mxPoint x="481" y="400.459138040781" as="targetPoint" />
          </mxGeometry>
        </mxCell>
        <mxCell id="27C8LPdTp-JJJdX5_l5X-59" value="" style="endArrow=none;html=1;rounded=0;" edge="1" parent="1" source="27C8LPdTp-JJJdX5_l5X-16" target="27C8LPdTp-JJJdX5_l5X-29">
          <mxGeometry relative="1" as="geometry">
            <mxPoint x="594" y="575" as="sourcePoint" />
            <mxPoint x="700" y="505" as="targetPoint" />
          </mxGeometry>
        </mxCell>
        <mxCell id="27C8LPdTp-JJJdX5_l5X-60" value="" style="endArrow=none;html=1;rounded=0;" edge="1" parent="1" source="27C8LPdTp-JJJdX5_l5X-54" target="27C8LPdTp-JJJdX5_l5X-12">
          <mxGeometry relative="1" as="geometry">
            <mxPoint x="280" y="538.459138040781" as="sourcePoint" />
            <mxPoint x="421" y="460.459138040781" as="targetPoint" />
          </mxGeometry>
        </mxCell>
      </root>
    </mxGraphModel>
  </diagram>
</mxfile>
